# xmcd
#
# Track frame offsets: 
#        150
#        15086
#        33112
#        45538
#        58208
#        73018
#        96576
#        112787
#        127002
#        140954
#        160381
#        175817
#        189473
#        207007
#        220308
#
# Disc length: 3179 seconds
#
# Revision: 0
# Processed by: cddbd v1.5.2PL0 Copyright (c) Steve Scherf et al.
# Submitted via: ExactAudioCopy v1.0b3
#
DISCID=d70c690f
DTITLE=Tuba Skinny - Owl Call Blues
DYEAR=2014
DGENRE=Blues
TTITLE0=Crazy About You
TTITLE1=Rosa Lee Blues
TTITLE2=Cannonball Blues
TTITLE3=Got A Mind To Ramble
TTITLE4=Short Dress Gal
TTITLE5=Owl Call Blues
TTITLE6=Too Tight
TTITLE7=Oriental Strut
TTITLE8=Ambulance Man
TTITLE9=How Do They Do It That Way
TTITLE10=Dallas Rag
TTITLE11=Untrue Blues
TTITLE12=Somebody's Been Lovin' My Baby
TTITLE13=Willie The Weeper
TTITLE14=Travelin' Blues
EXTD=
EXTT0=
EXTT1=
EXTT2=
EXTT3=
EXTT4=
EXTT5=
EXTT6=
EXTT7=
EXTT8=
EXTT9=
EXTT10=
EXTT11=
EXTT12=
EXTT13=
EXTT14=
PLAYORDER=
